<svg xmlns="http://www.w3.org/2000/svg" viewBox="0 0 25.53 26.6"><path d="M0,24c1.2-2.28,2.93-3.75,5.24-6.11C3.15,15.24,3.06,12.2,3.93,9,5.27,4.05,11.72-.82,16,.12a14.36,14.36,0,0,1,7.27,4.94c3.48,4.46,2.94,12.37-1.74,15.72-3,2.16-7.49,5-13,.44A20.54,20.54,0,0,1,3.2,26.6,6.86,6.86,0,0,1,0,24Zm20.65-6.12c3.71-4.24,3.32-8.67-.13-11.94A8.42,8.42,0,0,0,8.9,5.86c-3.11,2.93-2.57,9.05.85,12.74S16.94,22.1,20.65,17.86Z" fill="currentColor" fill-rule="evenodd"/><path d="M13,17c.76-1.09,2.7-1.09,3.93-.73A4.8,4.8,0,0,1,13,17Z" fill="currentColor" fill-rule="evenodd"/><path d="M11.2,14.88c.68-.71,2-.83,3.06-1a23.13,23.13,0,0,1,3.35-.43c.91,0,.66.68,0,.87C15.47,14.75,13.34,15.65,11.2,14.88Z" fill="currentColor" fill-rule="evenodd"/></svg>
